<?xml version="1.0" encoding="UTF-8"?>
<svg version="1.1" xmlns="http://www.w3.org/2000/svg" width="149" height="158">
<path d="M0 0 C2.03667615 1.54506466 2.86073078 2.72146156 4 5 C3.96687531 6.60504196 3.8973586 8.20936059 3.8125 9.8125 C3.70538061 18.61771354 5.72757415 27.11707583 7.51928711 35.69506836 C7.67792236 36.4556958 7.83655762 37.21632324 8 38 C8.1863501 38.85150635 8.3727002 39.7030127 8.56469727 40.58032227 C9 43 9 43 8.9375 46.375 C9.00629994 50.36539629 9.76940043 53.23128881 11 57 C12.32 56.34 13.64 55.68 15 55 C15 54.34 15 53.68 15 53 C15.99 53 16.98 53 18 53 C17.67 55.31 17.34 57.62 17 60 C16.34 60 15.68 60 15 60 C17.6234008 62.91488977 20.71816394 64.88503898 24 67 C23.875 68.75 23.875 68.75 23 71 C21.02678947 72.3726682 19.02456848 73.70427617 17 75 C15.97676564 76.31558703 14.96873032 77.64377755 14 79 C13.34 79 12.68 79 12 79 C11.505 80.485 11.505 80.485 11 82 C8.10776542 81.5715208 7.05204384 81.05204384 4.9375 78.9375 C-1.82526668 74.47695176 -12.27500745 77.16325032 -20 78 C-20.80076 86.75497598 -19.15994051 94.41606435 -16.86645508 102.79199219 C-15.80287959 106.68933281 -14.8732073 110.44324441 -14.43359375 114.46484375 C-13.98597183 118.11437386 -13.37474921 119.32840714 -11 122 C-10.67 122.99 -10.34 123.98 -10 125 C-7.50240018 126.69882448 -7.50240018 126.69882448 -5 128 C-5.40105131 132.41156446 -7.20407858 134.81195039 -9.7890625 138.21875 C-11.44291924 140.65151991 -12.24223244 143.17559363 -13 146 C-16.63970867 146.42820102 -18.04569463 145.97413512 -21.3125 144.125 C-22.199375 143.42375 -23.08625 142.7225 -24 142 C-24 141.34 -24 140.68 -24 140 C-24.99 140 -25.98 140 -27 140 C-28.94035144 136.11929711 -27.60144604 131.18630265 -27 127 C-26.62875 125.948125 -26.2575 124.89625 -25.875 123.8125 C-23.55118943 116.34310887 -27.31026295 106.75564392 -29 99.375 C-29.54312264 96.98730989 -30.08483837 94.59929922 -30.625 92.2109375 C-30.86476562 91.16212402 -31.10453125 90.11331055 -31.3515625 89.03271484 C-31.9931068 86.03223922 -32.51962971 83.03007156 -33 80 C-40.02673515 80.50343987 -47.01940909 81.04187968 -54 82 C-54.33 83.65 -54.66 85.3 -55 87 C-56.98 86.67 -58.96 86.34 -61 86 C-60.95875 86.78375 -60.9175 87.5675 -60.875 88.375 C-61 91 -61 91 -63 93 C-67.71329896 92.73668721 -70.51506731 91.29547109 -74.25 88.5 C-77.50026205 86.04573975 -77.50026205 86.04573975 -81 84 C-81.32461953 79.83896787 -80.58043843 77.68797352 -78.25 74.25 C-77.48429687 73.08210938 -77.48429687 73.08210938 -76.703125 71.890625 C-74.76767211 69.74209473 -73.75387531 69.55531988 -71 69 C-71.13277344 68.28674561 -71.26554687 67.57349121 -71.40234375 66.83862305 C-72.96145609 58.05652451 -73.65351344 49.34024392 -74.2109375 40.44726562 C-74.51126277 28.69838703 -74.51126277 28.69838703 -80 19 C-81.23599782 14.62646926 -81.02797315 12.05594629 -79 8 C-71.82888465 6.54146806 -71.82888465 6.54146806 -68.0625 8.625 C-65.78228885 11.25069769 -65.17210614 12.55787714 -65 16 C-65.226875 16.66 -65.45375 17.32 -65.6875 18 C-65.8421875 18.99 -65.8421875 18.99 -66 20 C-64.7111414 21.70129335 -63.36295295 23.35746695 -62 25 C-60.99394094 26.79771209 -60.01728155 28.61203683 -59.0625 30.4375 C-55.74568068 36.77740269 -55.74568068 36.77740269 -51 42 C-48.06012093 42.18683344 -45.91582132 41.6918898 -43 41 C-42.86722656 40.01257812 -42.73445313 39.02515625 -42.59765625 38.0078125 C-42.42105469 36.72648437 -42.24445312 35.44515625 -42.0625 34.125 C-41.88847656 32.84882812 -41.71445312 31.57265625 -41.53515625 30.2578125 C-41 27 -41 27 -40 25 C-39.55259978 20.69566285 -39.55259978 20.69566285 -41.5625 17.0625 C-43 15 -43 15 -42.9375 11.5 C-41.91433675 7.68019054 -41.26101645 6.20338949 -38 4 C-35 3.5 -35 3.5 -32 4 C-29.80859375 5.69140625 -29.80859375 5.69140625 -28 8 C-27.78515625 10.55859375 -27.78515625 10.55859375 -28.0625 13.4375 C-28.36911455 21.76719521 -25.6587341 30.68891854 -20 37 C-19.34 37 -18.68 37 -18 37 C-17.80664062 35.95199219 -17.61328125 34.90398438 -17.4140625 33.82421875 C-17.15140066 32.44524407 -16.88836 31.06634151 -16.625 29.6875 C-16.43550781 28.65206055 -16.43550781 28.65206055 -16.2421875 27.59570312 C-15.57885682 24.16296686 -14.96502361 21.94753542 -13 19 C-11.24578296 14.50481883 -10.41075013 10.01357604 -9.66015625 5.26953125 C-8.13653514 0.03152023 -5.13201273 -0.64150159 0 0 Z M-5 29 C-6.42944945 31.35438733 -7.08661261 32.48032433 -6.625 35.25 C-6.41875 35.8275 -6.2125 36.405 -6 37 C-5.01 36.67 -4.02 36.34 -3 36 C-3.33 33.69 -3.66 31.38 -4 29 C-4.33 29 -4.66 29 -5 29 Z M-34 33 C-34.33 35.31 -34.66 37.62 -35 40 C-33.35 39.67 -31.7 39.34 -30 39 C-30.50603992 36.83125748 -30.99983813 35.00032373 -32 33 C-32.66 33 -33.32 33 -34 33 Z M-10 46 C-10.99 46.99 -11.98 47.98 -13 49 C-12.01 49 -11.02 49 -10 49 C-10 48.01 -10 47.02 -10 46 Z M-37 50 C-37 50.99 -37 51.98 -37 53 C-36.34 53 -35.68 53 -35 53 C-35 52.34 -35 51.68 -35 51 C-30.59885603 51.50298788 -28.28804981 53.08772731 -25 56 C-23.7922442 52.37673261 -24.45688872 51.35853631 -26 48 C-27.8871875 47.938125 -27.8871875 47.938125 -29.8125 47.875 C-30.52019531 47.85179687 -31.22789063 47.82859375 -31.95703125 47.8046875 C-34.31359719 47.86745538 -34.31359719 47.86745538 -37 50 Z M-3.296875 52.28515625 C-3.77640625 52.87167969 -4.2559375 53.45820312 -4.75 54.0625 C-7.40215087 57.27643652 -10.12394918 60.41068152 -12.8984375 63.51953125 C-14.19898247 64.95987248 -14.19898247 64.95987248 -14 67 C-11.8729989 66.74535902 -9.74837785 66.47077058 -7.625 66.1875 C-6.44164063 66.03667969 -5.25828125 65.88585937 -4.0390625 65.73046875 C-0.70467916 65.29300666 -0.70467916 65.29300666 1 62 C1.02477359 59.24612373 1.02477359 59.24612373 0.625 56.3125 C0.51414062 55.31863281 0.40328125 54.32476562 0.2890625 53.30078125 C0.19367188 52.54152344 0.09828125 51.78226563 0 51 C-2.06752886 50.76536991 -2.06752886 50.76536991 -3.296875 52.28515625 Z M-61 56 C-61.99941114 61.33019275 -62.08651655 65.6579603 -61 71 C-57.10987685 73.59341544 -55.48583026 72.946125 -50.9375 72.25 C-49.68839844 72.06953125 -48.43929687 71.8890625 -47.15234375 71.703125 C-43.92053809 71.27801228 -43.92053809 71.27801228 -42 69 C-46.7444361 62.66884852 -51.56661133 58.82659021 -59 56 C-59.66 56 -60.32 56 -61 56 Z M-24 63 C-24 64.65 -24 66.3 -24 68 C-22.68 67.67 -21.36 67.34 -20 67 C-20.66 65.68 -21.32 64.36 -22 63 C-22.66 63 -23.32 63 -24 63 Z M-36 66 C-36 66.66 -36 67.32 -36 68 C-35.34 67.67 -34.68 67.34 -34 67 C-34.66 66.67 -35.32 66.34 -36 66 Z " fill="#312F2E" transform="translate(103,10)"/>
<path d="M0 0 C2.03667615 1.54506466 2.86073078 2.72146156 4 5 C3.99400176 6.62552303 3.94401141 8.25093149 3.875 9.875 C3.76313192 19.02580924 5.49416221 28.0023522 7 37 C6.34 37 5.68 37 5 37 C1.59257263 17.42757495 1.59257263 17.42757495 1.9921875 9.12890625 C2.00030067 6.9180673 1.62559541 5.11258758 1 3 C-1.33294775 2.95758277 -3.66702567 2.95907063 -6 3 C-7.19695276 3.97910585 -7.19695276 3.97910585 -7.1328125 5.8125 C-7.12894531 6.8953125 -7.12894531 6.8953125 -7.125 8 C-7.12757812 8.721875 -7.13015625 9.44375 -7.1328125 10.1875 C-7.19695276 12.02089415 -7.19695276 12.02089415 -6 13 C-5.92773498 14.85287502 -5.9161878 16.70833878 -5.9375 18.5625 C-5.94652344 19.57441406 -5.95554687 20.58632813 -5.96484375 21.62890625 C-5.97644531 22.41136719 -5.98804687 23.19382812 -6 24 C-6.66 24.33 -7.32 24.66 -8 25 C-8 22.36 -8 19.72 -8 17 C-8.66 16.67 -9.32 16.34 -10 16 C-10.33 18.31 -10.66 20.62 -11 23 C-11.99 23 -12.98 23 -14 23 C-13.95875 24.155 -13.9175 25.31 -13.875 26.5 C-13.85912567 30.94481301 -14.78206895 34.73724131 -16 39 C-18.66355234 39.39169887 -20.39224373 39.40564529 -22.66796875 37.88671875 C-24.1510888 36.63610683 -25.57954352 35.32135486 -27 34 C-26.10316006 38.90901861 -24.74440728 43.6800126 -23.37304688 48.47265625 C-22.38044467 52.07220272 -21.77727254 55.26392648 -22 59 C-21.34 59 -20.68 59 -20 59 C-20 59.99 -20 60.98 -20 62 C-19.34 62 -18.68 62 -18 62 C-18 62.99 -18 63.98 -18 65 C-17.34 65 -16.68 65 -16 65 C-15.92007813 64.28199219 -15.84015625 63.56398437 -15.7578125 62.82421875 C-14.31440756 57.44493127 -10.06168648 53.64443457 -6 50 C-3.49831063 48.73326437 -1.80793204 48.35845941 1 48 C1.80060032 51.55750625 2.18915234 54.91671077 2.25 58.5625 C2.27578125 59.49191406 2.3015625 60.42132813 2.328125 61.37890625 C1.92030839 64.63658417 1.49225045 65.83388388 -1 68 C-3.84359454 68.62535482 -6.37483418 69.01408896 -9.25 69.25 C-10.35794922 69.36601562 -10.35794922 69.36601562 -11.48828125 69.484375 C-15.99829407 69.92980836 -20.46501869 70.16448119 -25 70 C-25.33 69.67 -25.66 69.34 -26 69 C-25.7766015 67.41269488 -25.52109979 65.82985738 -25.25 64.25 C-24.71788928 59.76579485 -24.71788928 59.76579485 -27.3125 55.9375 C-29.80842135 54.02900044 -29.80842135 54.02900044 -32 53 C-33.76462683 56.08809695 -34 57.23312136 -34 61 C-33.67 61.66 -33.34 62.32 -33 63 C-33.33 63.66 -33.66 64.32 -34 65 C-33.34 65 -32.68 65 -32 65 C-32 67.31 -32 69.62 -32 72 C-41.66855081 73.39476293 -51.24416608 74.42878014 -61 75 C-62.97572514 67.67753847 -64.61730978 61.49843627 -63 54 C-60.03 53.505 -60.03 53.505 -57 53 C-57 52.34 -57 51.68 -57 51 C-55.125 50.375 -55.125 50.375 -53 50 C-52.34 50.66 -51.68 51.32 -51 52 C-48.93125966 52.6425235 -48.93125966 52.6425235 -47 53 C-46.855625 52.21625 -46.71125 51.4325 -46.5625 50.625 C-46 48 -46 48 -45 46 C-46.0725 45.773125 -47.145 45.54625 -48.25 45.3125 C-52.45661703 43.84018404 -53.41509944 42.47624558 -56 39 C-58.12946603 38.13034494 -58.12946603 38.13034494 -60 38 C-60 40.64 -60 43.28 -60 46 C-60.99 46.495 -60.99 46.495 -62 47 C-64.125 46.0625 -64.125 46.0625 -66 45 C-66 43.02 -66 41.04 -66 39 C-65.01 39 -64.02 39 -63 39 C-63.66 36.03 -64.32 33.06 -65 30 C-64.34 30 -63.68 30 -63 30 C-64.59279434 26.86954789 -64.59279434 26.86954789 -66.875 26.5625 C-69.75090369 25.80123138 -71.03988856 24.17012338 -73 22 C-72.83628906 23.20527344 -72.67257813 24.41054688 -72.50390625 25.65234375 C-71.80401264 31.95138624 -71.89196082 38.23255417 -71.9375 44.5625 C-71.94201172 45.76197266 -71.94652344 46.96144531 -71.95117188 48.19726562 C-71.96286231 51.13156359 -71.97924862 54.06575449 -72 57 C-72.33 57 -72.66 57 -73 57 C-73.07516846 55.88927124 -73.07516846 55.88927124 -73.15185547 54.75610352 C-73.38586155 51.35770903 -73.63035499 47.96014452 -73.875 44.5625 C-73.95363281 43.39783203 -74.03226563 42.23316406 -74.11328125 41.03320312 C-74.46557314 28.99801666 -74.46557314 28.99801666 -80 19 C-81.23599782 14.62646926 -81.02797315 12.05594629 -79 8 C-71.82888465 6.54146806 -71.82888465 6.54146806 -68.0625 8.625 C-65.78228885 11.25069769 -65.17210614 12.55787714 -65 16 C-65.226875 16.66 -65.45375 17.32 -65.6875 18 C-65.8421875 18.99 -65.8421875 18.99 -66 20 C-64.7111414 21.70129335 -63.36295295 23.35746695 -62 25 C-60.99394094 26.79771209 -60.01728155 28.61203683 -59.0625 30.4375 C-55.74568068 36.77740269 -55.74568068 36.77740269 -51 42 C-48.06012093 42.18683344 -45.91582132 41.6918898 -43 41 C-42.86722656 40.01257812 -42.73445313 39.02515625 -42.59765625 38.0078125 C-42.42105469 36.72648437 -42.24445312 35.44515625 -42.0625 34.125 C-41.88847656 32.84882812 -41.71445312 31.57265625 -41.53515625 30.2578125 C-41 27 -41 27 -40 25 C-39.55259978 20.69566285 -39.55259978 20.69566285 -41.5625 17.0625 C-43 15 -43 15 -42.9375 11.5 C-41.91433675 7.68019054 -41.26101645 6.20338949 -38 4 C-35 3.5 -35 3.5 -32 4 C-29.80859375 5.69140625 -29.80859375 5.69140625 -28 8 C-27.78515625 10.55859375 -27.78515625 10.55859375 -28.0625 13.4375 C-28.36911455 21.76719521 -25.6587341 30.68891854 -20 37 C-19.34 37 -18.68 37 -18 37 C-17.80664062 35.95199219 -17.61328125 34.90398438 -17.4140625 33.82421875 C-17.15140066 32.44524407 -16.88836 31.06634151 -16.625 29.6875 C-16.43550781 28.65206055 -16.43550781 28.65206055 -16.2421875 27.59570312 C-15.57885682 24.16296686 -14.96502361 21.94753542 -13 19 C-11.24578296 14.50481883 -10.41075013 10.01357604 -9.66015625 5.26953125 C-8.13653514 0.03152023 -5.13201273 -0.64150159 0 0 Z M-34 33 C-34.33 35.31 -34.66 37.62 -35 40 C-33.35 39.67 -31.7 39.34 -30 39 C-30.50603992 36.83125748 -30.99983813 35.00032373 -32 33 C-32.66 33 -33.32 33 -34 33 Z M-37 50 C-37 50.99 -37 51.98 -37 53 C-36.34 53 -35.68 53 -35 53 C-35 52.34 -35 51.68 -35 51 C-30.59885603 51.50298788 -28.28804981 53.08772731 -25 56 C-23.7922442 52.37673261 -24.45688872 51.35853631 -26 48 C-27.8871875 47.938125 -27.8871875 47.938125 -29.8125 47.875 C-30.52019531 47.85179687 -31.22789063 47.82859375 -31.95703125 47.8046875 C-34.31359719 47.86745538 -34.31359719 47.86745538 -37 50 Z M-3.296875 52.28515625 C-3.77640625 52.87167969 -4.2559375 53.45820312 -4.75 54.0625 C-7.40215087 57.27643652 -10.12394918 60.41068152 -12.8984375 63.51953125 C-14.19898247 64.95987248 -14.19898247 64.95987248 -14 67 C-11.8729989 66.74535902 -9.74837785 66.47077058 -7.625 66.1875 C-6.44164063 66.03667969 -5.25828125 65.88585937 -4.0390625 65.73046875 C-0.70467916 65.29300666 -0.70467916 65.29300666 1 62 C1.02477359 59.24612373 1.02477359 59.24612373 0.625 56.3125 C0.51414062 55.31863281 0.40328125 54.32476562 0.2890625 53.30078125 C0.19367188 52.54152344 0.09828125 51.78226563 0 51 C-2.06752886 50.76536991 -2.06752886 50.76536991 -3.296875 52.28515625 Z M-61 56 C-61.99941114 61.33019275 -62.08651655 65.6579603 -61 71 C-57.10987685 73.59341544 -55.48583026 72.946125 -50.9375 72.25 C-49.68839844 72.06953125 -48.43929687 71.8890625 -47.15234375 71.703125 C-43.92053809 71.27801228 -43.92053809 71.27801228 -42 69 C-46.7444361 62.66884852 -51.56661133 58.82659021 -59 56 C-59.66 56 -60.32 56 -61 56 Z M-24 63 C-24 64.65 -24 66.3 -24 68 C-22.68 67.67 -21.36 67.34 -20 67 C-20.66 65.68 -21.32 64.36 -22 63 C-22.66 63 -23.32 63 -24 63 Z M-36 66 C-36 66.66 -36 67.32 -36 68 C-35.34 67.67 -34.68 67.34 -34 67 C-34.66 66.67 -35.32 66.34 -36 66 Z " fill="#3D3B39" transform="translate(103,10)"/>
<path d="M0 0 C3.875 1.75 3.875 1.75 5 4 C7.52733235 4.65555119 7.52733235 4.65555119 10 5 C10 5.99 10 6.98 10 8 C9.34 8 8.68 8 8 8 C8.99 9.485 8.99 9.485 10 11 C10.125 14.1875 10.125 14.1875 10 17 C9.01 17 8.02 17 7 17 C7.33 18.98 7.66 20.96 8 23 C9.32 23.33 10.64 23.66 12 24 C12.33 21.36 12.66 18.72 13 16 C15.25 16.1875 15.25 16.1875 18 17 C18.61875 17.825 19.2375 18.65 19.875 19.5 C22.69941685 22.82284335 24.78827634 22.5320307 29 23 C29.66 23.99 30.32 24.98 31 26 C29.68 26.33 28.36 26.66 27 27 C26.67 28.32 26.34 29.64 26 31 C22.66666667 30.33333333 19.33333333 29.66666667 16 29 C16.33 29.99 16.66 30.98 17 32 C14.69 32 12.38 32 10 32 C9.71884774 39.1693825 10.81699255 45.94105785 12 53 C12.73637695 52.90912109 13.47275391 52.81824219 14.23144531 52.72460938 C17.57066326 52.31392032 20.91032079 51.9069203 24.25 51.5 C25.40886719 51.35691406 26.56773438 51.21382812 27.76171875 51.06640625 C28.87675781 50.93105469 29.99179687 50.79570313 31.140625 50.65625 C32.16704102 50.53056641 33.19345703 50.40488281 34.25097656 50.27539062 C37 50 37 50 41 50 C41 47.69 41 45.38 41 43 C40.34 43 39.68 43 39 43 C38.17361624 40.10765685 38 38.11257569 38 35 C39.5 32.75 39.5 32.75 41 31 C44.0379804 31.90318336 45.70077501 32.63838056 47.7421875 35.10546875 C49.40063593 38.92196033 48.75190054 41.73048116 47.8125 45.625 C47.60270508 46.62660156 47.60270508 46.62660156 47.38867188 47.6484375 C46.65913446 50.94951176 45.89571399 53.15642901 44 56 C41.06402461 56.38384509 38.31972627 56.603843 35.375 56.6875 C34.57320312 56.72166016 33.77140625 56.75582031 32.9453125 56.79101562 C30.96403682 56.87356878 28.98203963 56.93845916 27 57 C27 57.66 27 58.32 27 59 C24.36 59.33 21.72 59.66 19 60 C18.67 61.65 18.34 63.3 18 65 C16.02 64.67 14.04 64.34 12 64 C12.04125 64.78375 12.0825 65.5675 12.125 66.375 C12 69 12 69 10 71 C5.28670104 70.73668721 2.48493269 69.29547109 -1.25 66.5 C-4.50026205 64.04573975 -4.50026205 64.04573975 -8 62 C-8.32461953 57.83896787 -7.58043843 55.68797352 -5.25 52.25 C-4.48429687 51.08210938 -4.48429687 51.08210938 -3.703125 49.890625 C-1.81119295 47.79040685 -0.75839416 47.35979054 2 47 C1.83923477 46.4307782 1.67846954 45.8615564 1.51283264 45.27508545 C0.99640479 42.98405052 0.84295704 40.94362755 0.79467773 38.59863281 C0.77473251 37.7380426 0.75478729 36.87745239 0.73423767 35.99078369 C0.71752518 35.07085632 0.70081268 34.15092896 0.68359375 33.203125 C0.66281265 32.25435486 0.64203156 31.30558472 0.62062073 30.32806396 C0.55532066 27.30211518 0.49633112 24.2760808 0.4375 21.25 C0.3942962 19.19660579 0.35068131 17.14322018 0.30664062 15.08984375 C0.19965927 10.0599832 0.09833677 5.03003668 0 0 Z " fill="#353331" transform="translate(30,32)"/>
<path d="M0 0 C3.5 0.125 3.5 0.125 7 1 C9.01872141 3.92166389 9.15496023 6.0887122 8.9375 9.5625 C8.79248219 15.89210076 9.8174523 21.89099668 10.93334961 28.09790039 C11.81537546 33.15131561 12.14075192 37.86841959 12 43 C11.34 43 10.68 43 10 43 C10.495 47.455 10.495 47.455 11 52 C10.01 52.495 10.01 52.495 9 53 C8.67 50.69 8.34 48.38 8 46 C2.30355035 47.80387572 -0.52826649 48.97197216 -4 54 C-5.3303125 55.2684375 -5.3303125 55.2684375 -6.6875 56.5625 C-8.88449912 58.87825583 -9.65571773 59.90145954 -10 63 C-10.66 63 -11.32 63 -12 63 C-12 62.01 -12 61.02 -12 60 C-12.66 60 -13.32 60 -14 60 C-14 59.01 -14 58.02 -14 57 C-14.66 57 -15.32 57 -16 57 C-16.27263672 55.60587891 -16.27263672 55.60587891 -16.55078125 54.18359375 C-18.0127275 46.36248406 -18.0127275 46.36248406 -20.75 38.9375 C-22.12476548 35.70680112 -22.09454756 34.28364267 -21 31 C-19.60026042 32.26953125 -18.20052083 33.5390625 -16.80078125 34.80859375 C-14.64412462 36.39834151 -14.64412462 36.39834151 -10 37 C-9.34 31.72 -8.68 26.44 -8 21 C-7.01 21 -6.02 21 -5 21 C-4.67 18.69 -4.34 16.38 -4 14 C-3.01 14.33 -2.02 14.66 -1 15 C-1 13.68 -1 12.36 -1 11 C-1.33 10.67 -1.66 10.34 -2 10 C-2.27314815 4.26388889 -2.27314815 4.26388889 -2 2 C-1.34 1.34 -0.68 0.68 0 0 Z M1 27 C-0.42944945 29.35438733 -1.08661261 30.48032433 -0.625 33.25 C-0.41875 33.8275 -0.2125 34.405 0 35 C0.99 34.67 1.98 34.34 3 34 C2.67 31.69 2.34 29.38 2 27 C1.67 27 1.34 27 1 27 Z M-4 44 C-4.99 44.99 -5.98 45.98 -7 47 C-6.01 47 -5.02 47 -4 47 C-4 46.01 -4 45.02 -4 44 Z " fill="#272624" transform="translate(97,12)"/>
<path d="M0 0 C0.99 0.33 1.98 0.66 3 1 C2.01 5.62 1.02 10.24 0 15 C0.66 15 1.32 15 2 15 C1.67 17.31 1.34 19.62 1 22 C3.31 22 5.62 22 8 22 C8 22.33 8 22.66 8 23 C7.21625 23.12375 6.4325 23.2475 5.625 23.375 C2.85942178 23.79117993 2.85942178 23.79117993 1 26 C1.66 26.66 2.32 27.32 3 28 C0.69 28 -1.62 28 -4 28 C-4.33 31.63 -4.66 35.26 -5 39 C-4.34 39 -3.68 39 -3 39 C-2.90847656 38.39285156 -2.81695312 37.78570312 -2.72265625 37.16015625 C-1.81960031 34.46075119 -0.83021907 33.9021341 1.5625 32.4375 C3.48877939 31.31932405 3.48877939 31.31932405 5 30 C5 29.01 5 28.02 5 27 C5.804375 26.87625 6.60875 26.7525 7.4375 26.625 C8.283125 26.41875 9.12875 26.2125 10 26 C10.33 25.34 10.66 24.68 11 24 C11 26.64 11 29.28 11 32 C9.9275 32.391875 8.855 32.78375 7.75 33.1875 C4.05568981 34.76759653 2.35123758 36.70826739 0 40 C-1.3303125 41.2684375 -1.3303125 41.2684375 -2.6875 42.5625 C-4.88449912 44.87825583 -5.65571773 45.90145954 -6 49 C-6.66 49 -7.32 49 -8 49 C-8 48.01 -8 47.02 -8 46 C-8.66 46 -9.32 46 -10 46 C-10 45.01 -10 44.02 -10 43 C-10.66 43 -11.32 43 -12 43 C-12.27263672 41.60587891 -12.27263672 41.60587891 -12.55078125 40.18359375 C-14.0127275 32.36248406 -14.0127275 32.36248406 -16.75 24.9375 C-18.12476548 21.70680112 -18.09454756 20.28364267 -17 17 C-15.60026042 18.26953125 -14.20052083 19.5390625 -12.80078125 20.80859375 C-10.64412462 22.39834151 -10.64412462 22.39834151 -6 23 C-5.34 17.72 -4.68 12.44 -4 7 C-3.01 7 -2.02 7 -1 7 C-0.67 4.69 -0.34 2.38 0 0 Z " fill="#2B2927" transform="translate(93,26)"/>
<path d="M0 0 C3.0379804 0.90318336 4.70077501 1.63838056 6.7421875 4.10546875 C8.40063593 7.92196033 7.75190054 10.73048116 6.8125 14.625 C6.60270508 15.62660156 6.60270508 15.62660156 6.38867188 16.6484375 C5.65913446 19.94951176 4.89571399 22.15642901 3 25 C0.453125 25.40625 0.453125 25.40625 -2.75 25.5 C-10.07972069 25.88491271 -16.86563897 27.29930524 -24 29 C-23.67 29.99 -23.34 30.98 -23 32 C-25.31 32 -27.62 32 -30 32 C-30.33 32.66 -30.66 33.32 -31 34 C-32.32 33.67 -33.64 33.34 -35 33 C-35 31.68 -35 30.36 -35 29 C-34.34 28.67 -33.68 28.34 -33 28 C-32.67 27.01 -32.34 26.02 -32 25 C-32.66 25 -33.32 25 -34 25 C-34.33 23.35 -34.66 21.7 -35 20 C-34.360625 19.71125 -33.72125 19.4225 -33.0625 19.125 C-30.84793921 18.17176549 -30.84793921 18.17176549 -30 16 C-29.67 17.98 -29.34 19.96 -29 22 C-28.26362305 21.90912109 -27.52724609 21.81824219 -26.76855469 21.72460938 C-23.42933674 21.31392032 -20.08967921 20.9069203 -16.75 20.5 C-15.59113281 20.35691406 -14.43226562 20.21382812 -13.23828125 20.06640625 C-12.12324219 19.93105469 -11.00820313 19.79570313 -9.859375 19.65625 C-8.83295898 19.53056641 -7.80654297 19.40488281 -6.74902344 19.27539062 C-4 19 -4 19 0 19 C0 16.69 0 14.38 0 12 C-0.66 12 -1.32 12 -2 12 C-2.82638376 9.10765685 -3 7.11257569 -3 4 C-1.5 1.75 -1.5 1.75 0 0 Z " fill="#33312F" transform="translate(71,63)"/>
<path d="M0 0 C3.875 1.75 3.875 1.75 5 4 C7.52733235 4.65555119 7.52733235 4.65555119 10 5 C10 5.99 10 6.98 10 8 C9.34 8 8.68 8 8 8 C8.99 9.485 8.99 9.485 10 11 C10.125 14.1875 10.125 14.1875 10 17 C9.01 17 8.02 17 7 17 C7.33 18.98 7.66 20.96 8 23 C9.32 23.33 10.64 23.66 12 24 C12.33 21.36 12.66 18.72 13 16 C15.25 16.1875 15.25 16.1875 18 17 C18.61875 17.825 19.2375 18.65 19.875 19.5 C22.69941685 22.82284335 24.78827634 22.5320307 29 23 C29.66 23.99 30.32 24.98 31 26 C29.68 26.33 28.36 26.66 27 27 C26.67 28.32 26.34 29.64 26 31 C22.66666667 30.33333333 19.33333333 29.66666667 16 29 C16.33 29.99 16.66 30.98 17 32 C14.36 31.67 11.72 31.34 9 31 C9 31.99 9 32.98 9 34 C8.34 34 7.68 34 7 34 C6.11978631 27.28837062 5.88618045 20.76594019 6 14 C5.34 14 4.68 14 4 14 C3.67 16.31 3.34 18.62 3 21 C2.67 21 2.34 21 2 21 C0.65504172 13.90294338 -0.24091535 7.2274605 0 0 Z " fill="#2D2B29" transform="translate(30,32)"/>
<path d="M0 0 C2.04219706 1.69179328 2.91793306 2.63727666 3.51171875 5.26171875 C3.56972656 6.06222656 3.62773438 6.86273438 3.6875 7.6875 C3.75324219 8.49574219 3.81898437 9.30398437 3.88671875 10.13671875 C3.92410156 10.75160156 3.96148437 11.36648437 4 12 C5.32 11.34 6.64 10.68 8 10 C11 12 11 12 11.44140625 14.12890625 C11.48136719 14.93199219 11.52132812 15.73507813 11.5625 16.5625 C11.64690135 18.93738847 11.64690135 18.93738847 12 21 C12.66 21.33 13.32 21.66 14 22 C14.268125 22.78375 14.53625 23.5675 14.8125 24.375 C16.28551956 27.63114851 17.9395938 28.30872289 21 30 C21 30.66 21 31.32 21 32 C20 33 19 34 18 35 C14.63512487 39.61696183 14.63512487 39.61696183 13 45 C12.34 44.67 11.68 44.34 11 44 C11.33 42.68 11.66 41.36 12 40 C10.515 40.495 10.515 40.495 9 41 C9.33 39.68 9.66 38.36 10 37 C9.01 37.99 8.02 38.98 7 40 C6.34 39.67 5.68 39.34 5 39 C5.66 37.68 6.32 36.36 7 35 C4.525 35.495 4.525 35.495 2 36 C2.14037521 34.18706911 2.28744889 32.3746557 2.4375 30.5625 C2.51871094 29.55316406 2.59992188 28.54382813 2.68359375 27.50390625 C3 25 3 25 4 24 C3.85280102 18.08939489 2.70476053 12.64701924 1 7 C0.63049535 4.67212073 0.28647533 2.33954855 0 0 Z " fill="#3A3837" transform="translate(76,109)"/>
<path d="M0 0 C4.59225513 8.261959 4.59225513 8.261959 4 13 C4.66 13 5.32 13 6 13 C6 13.99 6 14.98 6 16 C6.66 16 7.32 16 8 16 C8 16.99 8 17.98 8 19 C8.66 19 9.32 19 10 19 C10.07992187 18.28199219 10.15984375 17.56398438 10.2421875 16.82421875 C11.68559244 11.44493127 15.93831352 7.64443457 20 4 C22.50168937 2.73326437 24.19206796 2.35845941 27 2 C27.80060032 5.55750625 28.18915234 8.91671077 28.25 12.5625 C28.27578125 13.49191406 28.3015625 14.42132813 28.328125 15.37890625 C27.92030839 18.63658417 27.49225045 19.83388388 25 22 C22.15640546 22.62535482 19.62516582 23.01408896 16.75 23.25 C16.01136719 23.32734375 15.27273437 23.4046875 14.51171875 23.484375 C10.00170593 23.92980836 5.53498131 24.16448119 1 24 C0.67 23.67 0.34 23.34 0 23 C0.2233985 21.41269488 0.47890021 19.82985738 0.75 18.25 C1.27050057 13.78221567 1.27050057 13.78221567 -1.25 9.9375 C-3.89895808 7.8737435 -3.89895808 7.8737435 -7 7 C-7.639375 7.99 -8.27875 8.98 -8.9375 10 C-9.618125 10.99 -10.29875 11.98 -11 13 C-11.33 13 -11.66 13 -12 13 C-12 9.37 -12 5.74 -12 2 C-7.8803623 0.70756464 -4.33168317 -0.26252625 0 0 Z M-11 4 C-11 4.99 -11 5.98 -11 7 C-10.34 7 -9.68 7 -9 7 C-9 6.34 -9 5.68 -9 5 C-4.59885603 5.50298788 -2.28804981 7.08772731 1 10 C2.2077558 6.37673261 1.54311128 5.35853631 0 2 C-1.8871875 1.938125 -1.8871875 1.938125 -3.8125 1.875 C-4.52019531 1.85179687 -5.22789063 1.82859375 -5.95703125 1.8046875 C-8.31359719 1.86745538 -8.31359719 1.86745538 -11 4 Z M22.703125 6.28515625 C22.22359375 6.87167969 21.7440625 7.45820312 21.25 8.0625 C18.59784913 11.27643652 15.87605082 14.41068152 13.1015625 17.51953125 C11.80101753 18.95987248 11.80101753 18.95987248 12 21 C14.1270011 20.74535902 16.25162215 20.47077058 18.375 20.1875 C19.55835938 20.03667969 20.74171875 19.88585937 21.9609375 19.73046875 C25.29532084 19.29300666 25.29532084 19.29300666 27 16 C27.02477359 13.24612373 27.02477359 13.24612373 26.625 10.3125 C26.51414062 9.31863281 26.40328125 8.32476562 26.2890625 7.30078125 C26.19367188 6.54152344 26.09828125 5.78226563 26 5 C23.93247114 4.76536991 23.93247114 4.76536991 22.703125 6.28515625 Z M2 17 C2 18.65 2 20.3 2 22 C3.32 21.67 4.64 21.34 6 21 C5.34 19.68 4.68 18.36 4 17 C3.34 17 2.68 17 2 17 Z " fill="#555351" transform="translate(77,56)"/>
<path d="M0 0 C0.98484375 0.01804687 1.9696875 0.03609375 2.984375 0.0546875 C4.10585937 0.08949219 4.10585937 0.08949219 5.25 0.125 C7.57081494 9.53784841 9.70009002 18.92078234 11.21020508 28.50170898 C11.82948864 32.29418866 12.7545858 35.59381184 14.25 39.125 C14.66181939 43.86092293 13.58978037 47.60324126 12.25 52.125 C12.25 53.445 12.25 54.765 12.25 56.125 C13.57 56.125 14.89 56.125 16.25 56.125 C15.92 57.445 15.59 58.765 15.25 60.125 C15.58 59.795 15.91 59.465 16.25 59.125 C17.25 58.125 18.25 57.125 19.25 56.125 C19.91 56.455 20.57 56.785 21.25 57.125 C20.59 58.445 19.93 59.765 19.25 61.125 C19.91 61.125 20.57 61.125 21.25 61.125 C21.58 62.775 21.91 64.425 22.25 66.125 C22.3428125 64.8565625 22.3428125 64.8565625 22.4375 63.5625 C23.43149818 59.35712309 25.27162264 56.26111074 28.25 53.125 C28.91 53.125 29.57 53.125 30.25 53.125 C29.3695104 50.87731753 29.3695104 50.87731753 26.75 49.8125 C24.25 48.125 24.25 48.125 23.4375 45.4375 C23.3446875 44.2928125 23.3446875 44.2928125 23.25 43.125 C22.26 42.795 21.27 42.465 20.25 42.125 C20.18941406 41.48691406 20.12882812 40.84882813 20.06640625 40.19140625 C19.98261719 39.36511719 19.89882812 38.53882813 19.8125 37.6875 C19.73128906 36.86378906 19.65007812 36.04007813 19.56640625 35.19140625 C19.46069185 33.13837975 19.46069185 33.13837975 18.25 32.125 C18.17820036 30.60571962 18.16607993 29.08332518 18.1875 27.5625 C18.19652344 26.73621094 18.20554687 25.90992187 18.21484375 25.05859375 C18.22644531 24.42050781 18.23804687 23.78242187 18.25 23.125 C18.58 23.125 18.91 23.125 19.25 23.125 C19.43175781 24.30578125 19.61351563 25.4865625 19.80078125 26.703125 C20.05409146 28.26051373 20.30803077 29.81780023 20.5625 31.375 C20.68044922 32.15230469 20.79839844 32.92960937 20.91992188 33.73046875 C21.63148406 37.99984185 22.30381494 40.80757983 25.25 44.125 C25.58 45.115 25.91 46.105 26.25 47.125 C28.74759982 48.82382448 28.74759982 48.82382448 31.25 50.125 C30.84894869 54.53656446 29.04592142 56.93695039 26.4609375 60.34375 C24.80708076 62.77651991 24.00776756 65.30059363 23.25 68.125 C19.61029133 68.55320102 18.20430537 68.09913512 14.9375 66.25 C13.6071875 65.198125 13.6071875 65.198125 12.25 64.125 C12.25 63.465 12.25 62.805 12.25 62.125 C11.26 62.125 10.27 62.125 9.25 62.125 C7.30964856 58.24429711 8.64855396 53.31130265 9.25 49.125 C9.62125 48.073125 9.9925 47.02125 10.375 45.9375 C12.69881057 38.46810887 8.93973705 28.88064392 7.25 21.5 C6.70687736 19.11230989 6.16516163 16.72429922 5.625 14.3359375 C5.38523437 13.28712402 5.14546875 12.23831055 4.8984375 11.15771484 C4.25849514 8.16473143 3.75316501 5.14399005 3.25 2.125 C-1.04 2.125 -5.33 2.125 -9.75 2.125 C-5.76219998 0.13109999 -4.27852428 -0.10186963 0 0 Z " fill="#797875" transform="translate(66.75,87.875)"/>
<path d="M0 0 C2.02878578 3.73296583 1.15139226 5.75275417 0.5625 9.875 C2.26672757 12.36093689 2.26672757 12.36093689 4.5625 14.875 C6.04040867 17.81588897 7.31529895 20.82997191 8.5625 23.875 C7.9025 23.875 7.2425 23.875 6.5625 23.875 C6.005625 22.740625 5.44875 21.60625 4.875 20.4375 C3.82880531 18.49182126 3.82880531 18.49182126 2.5625 16.875 C0.08641899 16.12975806 0.08641899 16.12975806 -2.4375 15.875 C-4.75 13.8125 -4.75 13.8125 -6.4375 11.875 C-6.27378906 13.08027344 -6.11007813 14.28554688 -5.94140625 15.52734375 C-5.24151264 21.82638624 -5.32946082 28.10755417 -5.375 34.4375 C-5.37951172 35.63697266 -5.38402344 36.83644531 -5.38867188 38.07226562 C-5.40036231 41.00656359 -5.41674862 43.94075449 -5.4375 46.875 C-5.7675 46.875 -6.0975 46.875 -6.4375 46.875 C-6.51266846 45.76427124 -6.51266846 45.76427124 -6.58935547 44.63110352 C-6.82336155 41.23270903 -7.06785499 37.83514452 -7.3125 34.4375 C-7.39113281 33.27283203 -7.46976563 32.10816406 -7.55078125 30.90820312 C-7.90307314 18.87301666 -7.90307314 18.87301666 -13.4375 8.875 C-14.37766004 5.54827984 -14.5729232 3.42900402 -13.75 0.0625 C-12.4375 -2.125 -12.4375 -2.125 -10.6875 -3 C-6.2184998 -3.24827779 -3.45186526 -3.00931843 0 0 Z " fill="#4E4C4A" transform="translate(36.4375,20.125)"/>
<path d="M0 0 C2.03667615 1.54506466 2.86073078 2.72146156 4 5 C3.99400176 6.62552303 3.94401141 8.25093149 3.875 9.875 C3.76313192 19.02580924 5.49416221 28.0023522 7 37 C6.34 37 5.68 37 5 37 C1.59257263 17.42757495 1.59257263 17.42757495 1.9921875 9.12890625 C2.00030067 6.9180673 1.62559541 5.11258758 1 3 C-1.33294775 2.95758277 -3.66702567 2.95907063 -6 3 C-7.19695276 3.97910585 -7.19695276 3.97910585 -7.1328125 5.8125 C-7.12894531 6.8953125 -7.12894531 6.8953125 -7.125 8 C-7.12757812 8.721875 -7.13015625 9.44375 -7.1328125 10.1875 C-7.19695276 12.02089415 -7.19695276 12.02089415 -6 13 C-5.92773498 14.85287502 -5.9161878 16.70833878 -5.9375 18.5625 C-5.94652344 19.57441406 -5.95554688 20.58632813 -5.96484375 21.62890625 C-5.97644531 22.41136719 -5.98804688 23.19382812 -6 24 C-6.99 24.495 -6.99 24.495 -8 25 C-8 22.36 -8 19.72 -8 17 C-8.66 16.67 -9.32 16.34 -10 16 C-10.33 18.31 -10.66 20.62 -11 23 C-11.99 23 -12.98 23 -14 23 C-13.95875 24.155 -13.9175 25.31 -13.875 26.5 C-13.85912567 30.94481301 -14.78206895 34.73724131 -16 39 C-18.98471903 39.33163545 -20.53072958 39.31284695 -23.0625 37.625 C-25.91754506 33.75687444 -27.35448016 29.48715283 -29 25 C-29.55300781 23.72962891 -29.55300781 23.72962891 -30.1171875 22.43359375 C-31.40512036 18.88323015 -31.00920453 16.05338626 -30.375 12.375 C-30.25125 11.26125 -30.1275 10.1475 -30 9 C-31.88500271 6.68436913 -31.88500271 6.68436913 -35 6.75 C-38.11499729 6.68436913 -38.11499729 6.68436913 -40 9 C-40.24253813 11.21072977 -40.24253813 11.21072977 -40.125 13.625 C-40.10695312 14.44226562 -40.08890625 15.25953125 -40.0703125 16.1015625 C-40.04710937 16.72804688 -40.02390625 17.35453125 -40 18 C-41.50390625 16.71484375 -41.50390625 16.71484375 -43 15 C-42.92959373 11.12765506 -42.52899129 8.76409854 -40.3125 5.5625 C-37.26222457 3.50150309 -35.61360931 3.39773178 -32 4 C-29.80859375 5.69140625 -29.80859375 5.69140625 -28 8 C-27.78515625 10.55859375 -27.78515625 10.55859375 -28.0625 13.4375 C-28.36911455 21.76719521 -25.6587341 30.68891854 -20 37 C-19.34 37 -18.68 37 -18 37 C-17.80664062 35.95199219 -17.61328125 34.90398438 -17.4140625 33.82421875 C-17.15140066 32.44524407 -16.88836 31.06634151 -16.625 29.6875 C-16.43550781 28.65206055 -16.43550781 28.65206055 -16.2421875 27.59570312 C-15.57885682 24.16296686 -14.96502361 21.94753542 -13 19 C-11.24578296 14.50481883 -10.41075013 10.01357604 -9.66015625 5.26953125 C-8.13653514 0.03152023 -5.13201273 -0.64150159 0 0 Z " fill="#7A7875" transform="translate(103,10)"/>
<path d="M0 0 C1.73602074 3.05938081 2.39557633 5.63288438 2.75 9.125 C2.89695312 10.42824219 2.89695312 10.42824219 3.046875 11.7578125 C3 14 3 14 1 16 C1.66 16 2.32 16 3 16 C3 18.31 3 20.62 3 23 C2.01 23.33 1.02 23.66 0 24 C0 24.99 0 25.98 0 27 C1.32 26.67 2.64 26.34 4 26 C3 29 3 29 1 30 C2.2488427 31.5833253 2.2488427 31.5833253 4 33 C5.32 33 6.64 33 8 33 C8.66 33 9.32 33 10 33 C10 31.02 10 29.04 10 27 C12.31 27.33 14.62 27.66 17 28 C17 27.34 17 26.68 17 26 C16.34 25.67 15.68 25.34 15 25 C18.82989106 23.19769832 21.78121808 22.80377759 26 23 C26 23.33 26 23.66 26 24 C22.04 24.495 22.04 24.495 18 25 C17.67 26.65 17.34 28.3 17 30 C15.02 29.67 13.04 29.34 11 29 C11.04125 29.78375 11.0825 30.5675 11.125 31.375 C11 34 11 34 9 36 C4.28670104 35.73668721 1.48493269 34.29547109 -2.25 31.5 C-5.50026205 29.04573975 -5.50026205 29.04573975 -9 27 C-9.32461953 22.83896787 -8.58043843 20.68797352 -6.25 17.25 C-5.73953125 16.47140625 -5.2290625 15.6928125 -4.703125 14.890625 C-2.81119295 12.79040685 -1.75839416 12.35979054 1 12 C0.835 11.505 0.67 11.01 0.5 10.5 C-0.20688818 6.96555911 -0.06005155 3.60309299 0 0 Z " fill="#535150" transform="translate(31,67)"/>
<path d="M0 0 C2.11758739 3.17638109 2.19945359 3.68476711 2 7.25 C1.88640353 11.58796529 2.60600237 14.90513196 4 19 C5.32 18.34 6.64 17.68 8 17 C8 16.34 8 15.68 8 15 C8.99 15 9.98 15 11 15 C10.67 17.31 10.34 19.62 10 22 C9.34 22 8.68 22 8 22 C10.6234008 24.91488977 13.71816394 26.88503898 17 29 C16.875 30.75 16.875 30.75 16 33 C14.02678947 34.3726682 12.02456848 35.70427617 10 37 C8.97676564 38.31558703 7.96873032 39.64377755 7 41 C6.34 41 5.68 41 5 41 C4.67 41.99 4.34 42.98 4 44 C1.10776542 43.5715208 0.05204384 43.05204384 -2.0625 40.9375 C-8.82526668 36.47695176 -19.27500745 39.16325032 -27 40 C-27.24923458 47.93396732 -26.70994772 55.2441657 -25 63 C-29.24325488 58.75674512 -29.10515655 52.77626657 -29.13623047 47.0769043 C-29.11986375 44.0501283 -29.07092223 41.02601522 -29 38 C-20.02243049 36.6699897 -11.05168034 36.91211961 -2 37 C-1.67 37.99 -1.34 38.98 -1 40 C1.00016466 41.20882096 1.00016466 41.20882096 3 42 C3.495 41.01 3.495 41.01 4 40 C4.66 40 5.32 40 6 40 C6.20625 39.2575 6.4125 38.515 6.625 37.75 C8.39748479 34.20503041 10.67431884 33.05201604 14 31 C14.33 30.34 14.66 29.68 15 29 C14.278125 28.9175 13.55625 28.835 12.8125 28.75 C9.41073132 27.84286169 7.54533916 26.39989121 5 24 C5 23.34 5 22.68 5 22 C4.01 22 3.02 22 2 22 C-0.3479743 14.66258031 -0.19355213 7.65606218 0 0 Z " fill="#7D7C79" transform="translate(110,48)"/>
<path d="M0 0 C0.33 0 0.66 0 1 0 C2.125 5.75 2.125 5.75 1 8 C1.66 8 2.32 8 3 8 C5.00865708 14.50422293 6.38614349 20.1781317 6 27 C5.38125 27.2475 4.7625 27.495 4.125 27.75 C1.87652198 28.80249898 1.87652198 28.80249898 1.125 30.875 C-0.50259921 33.94935407 -3.13674991 35.11147335 -6 37 C-6.33 37.99 -6.66 38.98 -7 40 C-8.485 40.495 -8.485 40.495 -10 41 C-9.68834824 38.3286992 -9.35739271 35.66512852 -9 33 C-8.896875 32.21625 -8.79375 31.4325 -8.6875 30.625 C-7.7178194 28.33302767 -6.17305631 28.08652815 -4 27 C-3.20643199 25.25328412 -3.20643199 25.25328412 -3 23 C-2.814375 21.7625 -2.62875 20.525 -2.4375 19.25 C-2.293125 18.1775 -2.14875 17.105 -2 16 C-2.66 16 -3.32 16 -4 16 C-3.67 12.7 -3.34 9.4 -3 6 C-2.01 7.485 -2.01 7.485 -1 9 C-0.67 6.03 -0.34 3.06 0 0 Z M1 14 C-0.42944945 16.35438733 -1.08661261 17.48032433 -0.625 20.25 C-0.41875 20.8275 -0.2125 21.405 0 22 C0.99 21.67 1.98 21.34 3 21 C2.67 18.69 2.34 16.38 2 14 C1.67 14 1.34 14 1 14 Z M-4 31 C-4.99 31.99 -5.98 32.98 -7 34 C-6.01 34 -5.02 34 -4 34 C-4 33.01 -4 32.02 -4 31 Z " fill="#353332" transform="translate(97,25)"/>
<path d="M0 0 C3.0379804 0.90318336 4.70077501 1.63838056 6.7421875 4.10546875 C8.40063593 7.92196033 7.75190054 10.73048116 6.8125 14.625 C6.67263672 15.29273437 6.53277344 15.96046875 6.38867188 16.6484375 C5.65913446 19.94951176 4.89571399 22.15642901 3 25 C2.34 25 1.68 25 1 25 C1 24.34 1 23.68 1 23 C-1.01822917 23.09765625 -3.03645833 23.1953125 -5.0546875 23.29296875 C-5.69664063 23.19628906 -6.33859375 23.09960938 -7 23 C-7.66 22.01 -8.32 21.02 -9 20 C-6.03 19.67 -3.06 19.34 0 19 C0 16.69 0 14.38 0 12 C-0.66 12 -1.32 12 -2 12 C-2.82638376 9.10765685 -3 7.11257569 -3 4 C-1.5 1.75 -1.5 1.75 0 0 Z " fill="#2A2927" transform="translate(71,63)"/>
<path d="M0 0 C0 0.66 0 1.32 0 2 C-1.65 2 -3.3 2 -5 2 C-4.67 3.98 -4.34 5.96 -4 8 C-3.01 8 -2.02 8 -1 8 C0.04005702 11.38018531 0.08004482 14.4780279 0 18 C0.99 18.33 1.98 18.66 3 19 C2.67 19.66 2.34 20.32 2 21 C1.01 21.33 0.02 21.66 -1 22 C-2.84993852 24.84412317 -3.32984478 27.40490751 -3.625 30.75 C-3.69976562 31.54921875 -3.77453125 32.3484375 -3.8515625 33.171875 C-3.90054688 33.77515625 -3.94953125 34.3784375 -4 35 C-2.35 35 -0.7 35 1 35 C0.67 35.99 0.34 36.98 0 38 C-2.31 37.67 -4.62 37.34 -7 37 C-7.94341969 33.99535882 -8.01081226 32.09644709 -7.1875 29.06640625 C-6.90519531 27.9690918 -6.90519531 27.9690918 -6.6171875 26.84960938 C-6.20671165 25.32851057 -5.79525786 23.80767533 -5.3828125 22.28710938 C-4.3395413 18.22478283 -3.55560793 15.09895048 -5 11 C-5.515625 10.54625 -6.03125 10.0925 -6.5625 9.625 C-8.8713299 7.01501838 -8.18853244 4.33073979 -8 1 C-4.93251126 -0.86240388 -3.40254489 -1.2151946 0 0 Z " fill="#292826" transform="translate(70,18)"/>
<path d="M0 0 C5.34965035 -0.35664336 5.34965035 -0.35664336 7.9375 1.0625 C9.61651103 4.124226 8.64381584 6.66386339 8 10 C8 13.4744317 8.14549269 14.84383842 9.375 17.875 C10.6961673 21.21861771 11.88834249 24.57951537 13 28 C12.34 28 11.68 28 11 28 C10.34 28.99 9.68 29.98 9 31 C6 26.25 6 26.25 6 24 C5.34 23.67 4.68 23.34 4 23 C4.99 23 5.98 23 7 23 C7 22.34 7 21.68 7 21 C6.505 20.62875 6.01 20.2575 5.5 19.875 C3.06326089 16.82907612 3.81251283 13.81223906 4 10 C3.01 10 2.02 10 1 10 C0.67 8.02 0.34 6.04 0 4 C1.65 4 3.3 4 5 4 C4.67 3.34 4.34 2.68 4 2 C2.35 2 0.7 2 -1 2 C-0.67 1.34 -0.34 0.68 0 0 Z " fill="#353331" transform="translate(65,16)"/>
<path d="M0 0 C0.98484375 0.01804687 1.9696875 0.03609375 2.984375 0.0546875 C4.10585937 0.08949219 4.10585937 0.08949219 5.25 0.125 C7.57081494 9.53784841 9.70009002 18.92078234 11.21020508 28.50170898 C11.82948864 32.29418866 12.7545858 35.59381184 14.25 39.125 C14.66523568 43.90021031 13.68916378 47.62761317 12.25 52.125 C11.59 52.125 10.93 52.125 10.25 52.125 C9.66338532 55.37106681 9.66338532 55.37106681 10.25 59.125 C12.31581634 61.51182039 14.66608882 63.32549043 17.25 65.125 C14.25 65.125 14.25 65.125 12.25 64.125 C12.25 63.465 12.25 62.805 12.25 62.125 C11.26 62.125 10.27 62.125 9.25 62.125 C7.30964856 58.24429711 8.64855396 53.31130265 9.25 49.125 C9.62125 48.073125 9.9925 47.02125 10.375 45.9375 C12.69881057 38.46810887 8.93973705 28.88064392 7.25 21.5 C6.70687736 19.11230989 6.16516163 16.72429922 5.625 14.3359375 C5.38523437 13.28712402 5.14546875 12.23831055 4.8984375 11.15771484 C4.25849514 8.16473143 3.75316501 5.14399005 3.25 2.125 C-1.04 2.125 -5.33 2.125 -9.75 2.125 C-5.76219998 0.13109999 -4.27852428 -0.10186963 0 0 Z " fill="#7D7B78" transform="translate(66.75,87.875)"/>
<path d="M0 0 C0.99 0 1.98 0 3 0 C5.5 2.5 5.5 2.5 8 5 C10.66533035 6.319018 10.66533035 6.319018 13 7 C12 10 12 10 9.0625 11.9375 C6.14475815 13.90250982 5.14885011 14.7832197 4 18 C3.34 18 2.68 18 2 18 C1.67 18.99 1.34 19.98 1 21 C-0.65 20.01 -2.3 19.02 -4 18 C-3.34 17.67 -2.68 17.34 -2 17 C1.11787827 12.0833458 1.36994554 8.64166944 1 3 C0.67 2.01 0.34 1.02 0 0 Z " fill="#32302E" transform="translate(112,70)"/>
<path d="M0 0 C0.33 0.99 0.66 1.98 1 3 C1.66 3 2.32 3 3 3 C3.70132913 9.70019789 4.11044961 16.26257354 4 23 C4.66 23 5.32 23 6 23 C6 22.01 6 21.02 6 20 C7.32 20.33 8.64 20.66 10 21 C9.01 21 8.02 21 7 21 C6.67 22.98 6.34 24.96 6 27 C5.01 27.33 4.02 27.66 3 28 C2.63743142 26.5437328 2.28520207 25.08488815 1.9375 23.625 C1.74027344 22.81289062 1.54304688 22.00078125 1.33984375 21.1640625 C1 19 1 19 2 17 C1.34 17 0.68 17 0 17 C0.09539063 17.62648438 0.19078125 18.25296875 0.2890625 18.8984375 C0.45535156 20.12433594 0.45535156 20.12433594 0.625 21.375 C0.74101563 22.18710938 0.85703125 22.99921875 0.9765625 23.8359375 C0.98429687 24.55007812 0.99203125 25.26421875 1 26 C0.34 26.66 -0.32 27.32 -1 28 C-1.84191782 25.0751367 -2.11819313 22.49258344 -2.09765625 19.453125 C-2.09443359 18.60878906 -2.09121094 17.76445313 -2.08789062 16.89453125 C-2.07951172 16.02183594 -2.07113281 15.14914063 -2.0625 14.25 C-2.05798828 13.36183594 -2.05347656 12.47367188 -2.04882812 11.55859375 C-2.037074 9.37232671 -2.02064249 7.18619821 -2 5 C-1.67 5 -1.34 5 -1 5 C-0.67 3.35 -0.34 1.7 0 0 Z " fill="#3E3D3A" transform="translate(33,43)"/>
<path d="M0 0 C0.99 0.33 1.98 0.66 3 1 C2.01 5.62 1.02 10.24 0 15 C0.66 15 1.32 15 2 15 C1.67 17.31 1.34 19.62 1 22 C3.31 22 5.62 22 8 22 C8 22.33 8 22.66 8 23 C3.33333333 23 -1.33333333 23 -6 23 C-5.34 17.72 -4.68 12.44 -4 7 C-3.01 7 -2.02 7 -1 7 C-0.67 4.69 -0.34 2.38 0 0 Z " fill="#3A3836" transform="translate(93,26)"/>
<path d="M0 0 C3.5 0.125 3.5 0.125 7 1 C9.25281065 4.13126512 9.11594302 6.51883304 8.625 10.25 C8.45871094 11.58804687 8.45871094 11.58804687 8.2890625 12.953125 C8.14597656 13.96632813 8.14597656 13.96632813 8 15 C7.67 13.68 7.34 12.36 7 11 C5.68 11.33 4.36 11.66 3 12 C2.67 11.01 2.34 10.02 2 9 C0.68 9.33 -0.64 9.66 -2 10 C-2.1953125 3.9453125 -2.1953125 3.9453125 -2 2 C-1.34 1.34 -0.68 0.68 0 0 Z " fill="#3D3B39" transform="translate(97,12)"/>
<path d="M0 0 C7.47666434 0.96473088 14.23290217 4.15646072 19 10 C19 10.66 19 11.32 19 12 C19.66 12 20.32 12 21 12 C23 15 23 15 23 18 C20.43795456 18.33719047 17.87545682 18.66987153 15.3125 19 C14.59126953 19.09539062 13.87003906 19.19078125 13.12695312 19.2890625 C9.40578832 19.76482786 5.75927342 20.23001291 2 20 C-0.63357624 17.36642376 -0.58550857 11.55143795 -1 8 C-0.89613502 5.22161182 -0.51735458 2.7419793 0 0 Z M2 2 C1.00058886 7.33019275 0.91348345 11.6579603 2 17 C5.89012315 19.59341544 7.51416974 18.946125 12.0625 18.25 C13.31160156 18.06953125 14.56070313 17.8890625 15.84765625 17.703125 C19.07946191 17.27801228 19.07946191 17.27801228 21 15 C16.2555639 8.66884852 11.43338867 4.82659021 4 2 C3.34 2 2.68 2 2 2 Z " fill="#7C7A78" transform="translate(40,64)"/>
<path d="M0 0 C1.64826111 2.96687001 2.44271087 5.65626525 3 9 C4.11375 9.226875 5.2275 9.45375 6.375 9.6875 C10 11 10 11 11.4375 13.625 C11.623125 14.40875 11.80875 15.1925 12 16 C10.35 15.01 8.7 14.02 7 13 C7.16371094 14.20527344 7.32742187 15.41054688 7.49609375 16.65234375 C8.19598736 22.95138624 8.10803918 29.23255417 8.0625 35.5625 C8.05798828 36.76197266 8.05347656 37.96144531 8.04882812 39.19726562 C8.03713769 42.13156359 8.02075138 45.06575449 8 48 C7.67 48 7.34 48 7 48 C6.92483154 46.88927124 6.92483154 46.88927124 6.84814453 45.75610352 C6.61413845 42.35770903 6.36964501 38.96014452 6.125 35.5625 C6.04636719 34.39783203 5.96773437 33.23316406 5.88671875 32.03320312 C5.52936759 20.00080499 5.52936759 20.00080499 0 10 C-0.93335834 6.3443465 -1.24211322 3.58832708 0 0 Z " fill="#666462" transform="translate(23,19)"/>
<path d="M0 0 C0.33 0 0.66 0 1 0 C2.125 5.75 2.125 5.75 1 8 C1.66 8 2.32 8 3 8 C4.26305335 13.07476794 5.27036084 17.72796354 5 23 C2.36 23 -0.28 23 -3 23 C-2.67 20.69 -2.34 18.38 -2 16 C-2.66 16 -3.32 16 -4 16 C-3.67 12.7 -3.34 9.4 -3 6 C-2.01 7.485 -2.01 7.485 -1 9 C-0.67 6.03 -0.34 3.06 0 0 Z M1 14 C-0.42944945 16.35438733 -1.08661261 17.48032433 -0.625 20.25 C-0.41875 20.8275 -0.2125 21.405 0 22 C0.99 21.67 1.98 21.34 3 21 C2.67 18.69 2.34 16.38 2 14 C1.67 14 1.34 14 1 14 Z " fill="#43413F" transform="translate(97,25)"/>
<path d="M0 0 C2.04219706 1.69179328 2.91793306 2.63727666 3.51171875 5.26171875 C3.56972656 6.06222656 3.62773438 6.86273438 3.6875 7.6875 C3.75324219 8.49574219 3.81898437 9.30398437 3.88671875 10.13671875 C3.92410156 10.75160156 3.96148437 11.36648437 4 12 C5.32 11.34 6.64 10.68 8 10 C11 12 11 12 11.4765625 14.05859375 C11.52554688 14.84363281 11.57453125 15.62867187 11.625 16.4375 C11.82026381 19.25952696 12.09380431 21.28141293 13 24 C12.01 24.33 11.02 24.66 10 25 C9.67 24.01 9.34 23.02 9 22 C8.01 22 7.02 22 6 22 C6 20.68 6 19.36 6 18 C5.34 18 4.68 18 4 18 C1.40555386 12.25515498 0 6.29075036 0 0 Z " fill="#343230" transform="translate(76,109)"/>
<path d="M0 0 C2 3.75 2 3.75 2 6 C2.99 6 3.98 6 5 6 C5.33 7.98 5.66 9.96 6 12 C5.38125 12.061875 4.7625 12.12375 4.125 12.1875 C1.72238859 12.828919 1.72238859 12.828919 0.75 15.5625 C0.5025 16.366875 0.255 17.17125 0 18 C-1.32 17.67 -2.64 17.34 -4 17 C-4 15.68 -4 14.36 -4 13 C-3.34 12.67 -2.68 12.34 -2 12 C-1.67 11.01 -1.34 10.02 -1 9 C-1.66 9 -2.32 9 -3 9 C-3.33 7.35 -3.66 5.7 -4 4 C-2.68 3.34 -1.36 2.68 0 2 C0 1.34 0 0.68 0 0 Z " fill="#2F2D2C" transform="translate(40,79)"/>
<path d="M0 0 C2.03667615 1.54506466 2.86073078 2.72146156 4 5 C3.99400176 6.62552303 3.94401141 8.25093149 3.875 9.875 C3.76313192 19.02580924 5.49416221 28.0023522 7 37 C6.34 37 5.68 37 5 37 C1.59257263 17.42757495 1.59257263 17.42757495 1.9921875 9.12890625 C2.00030067 6.9180673 1.62559541 5.11258758 1 3 C-1.33294775 2.95758277 -3.66702567 2.95907063 -6 3 C-7.53555954 4.53555954 -7.18895356 6.1179414 -7.3125 8.25 C-7.726635 12.57771074 -8.86568799 14.86568799 -12 18 C-11.85304688 17.28070312 -11.70609375 16.56140625 -11.5546875 15.8203125 C-11.20219433 14.02805851 -10.87148977 12.23127514 -10.5703125 10.4296875 C-10.42335938 9.58664063 -10.27640625 8.74359375 -10.125 7.875 C-9.98320313 7.02679687 -9.84140625 6.17859375 -9.6953125 5.3046875 C-8.11356315 0.06181044 -5.18397261 -0.64799658 0 0 Z " fill="#7A7976" transform="translate(103,10)"/>
<path d="M0 0 C1.98 0.66 3.96 1.32 6 2 C6 4.31 6 6.62 6 9 C-3.66855081 10.39476293 -13.24416608 11.42878014 -23 12 C-23 11.67 -23 11.34 -23 11 C-15.94546999 9.79556805 -9.16562789 8.71899498 -2 9 C-2.66 7.35 -3.32 5.7 -4 4 C-3.34 4 -2.68 4 -2 4 C-1.34 2.68 -0.68 1.36 0 0 Z M2 3 C2 3.66 2 4.32 2 5 C2.66 4.67 3.32 4.34 4 4 C3.34 3.67 2.68 3.34 2 3 Z " fill="#3E3D3A" transform="translate(65,73)"/>
<path d="M0 0 C0.66 0 1.32 0 2 0 C2.33 1.65 2.66 3.3 3 5 C3.66 5 4.32 5 5 5 C4.67 6.32 4.34 7.64 4 9 C3.34 9 2.68 9 2 9 C2 10.32 2 11.64 2 13 C3.32 13.33 4.64 13.66 6 14 C6.33 13.34 6.66 12.68 7 12 C7 13.65 7 15.3 7 17 C6.34 17 5.68 17 5 17 C4.67 17.66 4.34 18.32 4 19 C2.68 18.34 1.36 17.68 0 17 C0 16.34 0 15.68 0 15 C-0.99 14.67 -1.98 14.34 -3 14 C-1.68 12.68 -0.36 11.36 1 10 C-0.32 10.33 -1.64 10.66 -3 11 C-3 10.01 -3 9.02 -3 8 C-2.34 7.67 -1.68 7.34 -1 7 C-0.59270772 4.67843403 -0.25561323 2.3431213 0 0 Z " fill="#3C3A39" transform="translate(34,83)"/>
<path d="M0 0 C3 3.75 3 3.75 3 6 C3.66 6 4.32 6 5 6 C5 7.32 5 8.64 5 10 C4.34 10 3.68 10 3 10 C3 12.64 3 15.28 3 18 C2.34 18.33 1.68 18.66 1 19 C-1.125 18.0625 -1.125 18.0625 -3 17 C-3 15.02 -3 13.04 -3 11 C-2.01 11 -1.02 11 0 11 C-0.66 8.03 -1.32 5.06 -2 2 C-1.34 2 -0.68 2 0 2 C0 1.34 0 0.68 0 0 Z " fill="#353331" transform="translate(40,38)"/>
<path d="M0 0 C0.66 0 1.32 0 2 0 C2.33 0.99 2.66 1.98 3 3 C3.99 3.66 4.98 4.32 6 5 C6.40843923 7.71203652 6.13336867 10.2437142 6 13 C5.34 13 4.68 13 4 13 C4.33 15.97 4.66 18.94 5 22 C4.34 22.33 3.68 22.66 3 23 C0.77213907 15.75594904 -0.94374983 8.62189833 -1 1 C-0.67 0.67 -0.34 0.34 0 0 Z " fill="#272524" transform="translate(103,42)"/>
<path d="M0 0 C0.67667998 1.24460783 1.34094719 2.49596896 2 3.75 C2.556875 4.79414062 2.556875 4.79414062 3.125 5.859375 C4 8 4 8 4 12 C0.51750769 10.74243333 -2.06465849 9.2268108 -5 7 C-5.66 7 -6.32 7 -7 7 C-8.36176581 8.98075027 -9.69593116 10.98079663 -11 13 C-11.33 13 -11.66 13 -12 13 C-12 9.37 -12 5.74 -12 2 C-7.8803623 0.70756464 -4.33168317 -0.26252625 0 0 Z M-11 4 C-11 4.99 -11 5.98 -11 7 C-10.34 7 -9.68 7 -9 7 C-9 6.34 -9 5.68 -9 5 C-4.59885603 5.50298788 -2.28804981 7.08772731 1 10 C2.2077558 6.37673261 1.54311128 5.35853631 0 2 C-1.8871875 1.938125 -1.8871875 1.938125 -3.8125 1.875 C-4.52019531 1.85179687 -5.22789063 1.82859375 -5.95703125 1.8046875 C-8.31359719 1.86745538 -8.31359719 1.86745538 -11 4 Z " fill="#767471" transform="translate(77,56)"/>
<path d="M0 0 C0.80674061 3.57828496 1.1893828 6.95765945 1.25 10.625 C1.27578125 11.56601563 1.3015625 12.50703125 1.328125 13.4765625 C1 16 1 16 -0.03515625 17.79296875 C-3.06243179 19.65266684 -6.22954525 19.57449494 -9.6875 19.6875 C-10.38939453 19.72166016 -11.09128906 19.75582031 -11.81445312 19.79101562 C-13.54241387 19.87329947 -15.27118072 19.9383324 -17 20 C-16.505 18.515 -16.505 18.515 -16 17 C-15.67 17.66 -15.34 18.32 -15 19 C-10.71 18.01 -6.42 17.02 -2 16 C-1.23585111 11.41510669 -0.90829297 7.58535136 -1 3 C-5.69564393 6.31457218 -8.72469104 10.36279281 -12 15 C-12 11.26017042 -10.99699161 10.36893368 -8.6875 7.5 C-8.07261719 6.7265625 -7.45773438 5.953125 -6.82421875 5.15625 C-2.46195652 0 -2.46195652 0 0 0 Z " fill="#7E7C7A" transform="translate(104,58)"/>
<path d="M0 0 C0.66 1.32 1.32 2.64 2 4 C3.32 4 4.64 4 6 4 C5.67 5.32 5.34 6.64 5 8 C5.33 7.67 5.66 7.34 6 7 C7 6 8 5 9 4 C9.66 4.33 10.32 4.66 11 5 C10.34 6.32 9.68 7.64 9 9 C9.66 9 10.32 9 11 9 C11.33 10.98 11.66 12.96 12 15 C6.29086284 14.21874965 2.51238452 11.53757289 -1 7 C-1 3.0625 -1 3.0625 0 0 Z " fill="#5E5B5B" transform="translate(77,140)"/>
<path d="M0 0 C0.66 0 1.32 0 2 0 C2 0.99 2 1.98 2 3 C3.98 2.34 5.96 1.68 8 1 C8 1.66 8 2.32 8 3 C7 4 6 5 5 6 C1.63512487 10.61696183 1.63512487 10.61696183 0 16 C-0.66 15.67 -1.32 15.34 -2 15 C-1.67 13.68 -1.34 12.36 -1 11 C-1.99 11.33 -2.98 11.66 -4 12 C-3.66666667 10.66666667 -3.33333333 9.33333333 -3 8 C-2.855625 7.34 -2.71125 6.68 -2.5625 6 C-1.95231644 3.83045845 -1.06216572 1.98270935 0 0 Z " fill="#3E3C3B" transform="translate(89,138)"/>
<path d="M0 0 C0 0.33 0 0.66 0 1 C-2.64 1.33 -5.28 1.66 -8 2 C-8.33 3.65 -8.66 5.3 -9 7 C-11.97 6.505 -11.97 6.505 -15 6 C-14.95875 6.78375 -14.9175 7.5675 -14.875 8.375 C-15 11 -15 11 -17 13 C-21.75638555 12.74019743 -24.59743963 11.24514622 -28.375 8.4375 C-29.24898437 7.79683594 -30.12296875 7.15617187 -31.0234375 6.49609375 C-32.00183594 5.75552734 -32.00183594 5.75552734 -33 5 C-30 4 -30 4 -28.2109375 4.70703125 C-27.60507812 5.07183594 -26.99921875 5.43664062 -26.375 5.8125 C-25.76398437 6.16957031 -25.15296875 6.52664062 -24.5234375 6.89453125 C-23 8 -23 8 -22 10 C-20.68 10 -19.36 10 -18 10 C-17.34 10 -16.68 10 -16 10 C-16 8.02 -16 6.04 -16 4 C-13.69 4.33 -11.38 4.66 -9 5 C-9 4.34 -9 3.68 -9 3 C-9.66 2.67 -10.32 2.34 -11 2 C-7.17010894 0.19769832 -4.21878192 -0.19622241 0 0 Z " fill="#858381" transform="translate(57,90)"/>
<path d="M0 0 C0.82638376 2.89234315 1 4.88742431 1 8 C-0.051875 8.391875 -1.10375 8.78375 -2.1875 9.1875 C-5.91658932 10.76402557 -8.29663487 12.96895425 -11 16 C-11 15.01 -11 14.02 -11 13 C-11.66 12.67 -12.32 12.34 -13 12 C-12.4225 11.60167969 -11.845 11.20335937 -11.25 10.79296875 C-10.5075 10.26316406 -9.765 9.73335937 -9 9.1875 C-8.2575 8.66542969 -7.515 8.14335938 -6.75 7.60546875 C-6.1725 7.07566406 -5.595 6.54585937 -5 6 C-5 5.01 -5 4.02 -5 3 C-3.35 2.67 -1.7 2.34 0 2 C0 1.34 0 0.68 0 0 Z " fill="#2F2D2D" transform="translate(103,50)"/>
<path d="M0 0 C5.34965035 -0.35664336 5.34965035 -0.35664336 7.9375 1.0625 C9.61676907 4.12469653 8.68621125 6.69370941 8 10 C5.69 10 3.38 10 1 10 C0.67 8.02 0.34 6.04 0 4 C1.65 4 3.3 4 5 4 C4.67 3.34 4.34 2.68 4 2 C2.35 2 0.7 2 -1 2 C-0.67 1.34 -0.34 0.68 0 0 Z " fill="#53514F" transform="translate(65,16)"/>
<path d="M0 0 C3.73574522 0.2547099 5.57829882 0.63236308 8.4375 3.125 C10.46154557 6.84924385 9.68169286 8.90984285 9 13 C10.33378575 14.8354799 10.33378575 14.8354799 12 16 C12 16.66 12 17.32 12 18 C10.0625 17.3125 10.0625 17.3125 8 16 C6.79196542 12.37589626 6.91178315 8.79332445 7 5 C5.68 4.34 4.36 3.68 3 3 C3.33 4.98 3.66 6.96 4 9 C2.68 8.67 1.36 8.34 0 8 C0 5.36 0 2.72 0 0 Z " fill="#817F7D" transform="translate(28,17)"/>
<path d="M0 0 C2.11758739 3.17638109 2.19945359 3.68476711 2 7.25 C1.88640353 11.58796529 2.60600237 14.90513196 4 19 C5.65 18.01 7.3 17.02 9 16 C9.33 16.99 9.66 17.98 10 19 C9.67 19.66 9.34 20.32 9 21 C8.34 21 7.68 21 7 21 C6.67 21.99 6.34 22.98 6 24 C5.67 23.34 5.34 22.68 5 22 C4.01 22 3.02 22 2 22 C-0.3479743 14.66258031 -0.19355213 7.65606218 0 0 Z " fill="#7A7875" transform="translate(110,48)"/>
<path d="M0 0 C0.99 0.33 1.98 0.66 3 1 C2.01 5.95 1.02 10.9 0 16 C-0.99 16.33 -1.98 16.66 -3 17 C-3 13.7 -3 10.4 -3 7 C-2.34 7 -1.68 7 -1 7 C-0.67 4.69 -0.34 2.38 0 0 Z " fill="#2F2D2B" transform="translate(93,26)"/>
<path d="M0 0 C1.32 0.66 2.64 1.32 4 2 C3.35812082 7.13503344 2.31727753 11.9943454 1 17 C0.34 17 -0.32 17 -1 17 C-1 18.65 -1 20.3 -1 22 C-1.33 22 -1.66 22 -2 22 C-1.85930804 19.87465341 -1.71229079 17.74972471 -1.5625 15.625 C-1.48128906 14.44164062 -1.40007813 13.25828125 -1.31640625 12.0390625 C-1 9 -1 9 0 7 C0.04022391 4.6670134 0.04320247 2.33293334 0 0 Z " fill="#676562" transform="translate(63,28)"/>
<path d="M0 0 C0 0.66 0 1.32 0 2 C-1.65 2 -3.3 2 -5 2 C-4.65772428 4.97065509 -4.65772428 4.97065509 -4 8 C-3.34 8.33 -2.68 8.66 -2 9 C-2.99 9.66 -3.98 10.32 -5 11 C-6.5 9.9375 -6.5 9.9375 -8 8 C-8.1875 4.3125 -8.1875 4.3125 -8 1 C-4.93251126 -0.86240388 -3.40254489 -1.2151946 0 0 Z " fill="#3F3D3B" transform="translate(70,18)"/>
<path d="M0 0 C0.33 0 0.66 0 1 0 C1.06058594 1.01320312 1.12117188 2.02640625 1.18359375 3.0703125 C1.26806704 4.42188514 1.35271157 5.77344709 1.4375 7.125 C1.47681641 7.79015625 1.51613281 8.4553125 1.55664062 9.140625 C1.812152 13.15018817 2.26782413 17.04994196 3 21 C2.01 21.33 1.02 21.66 0 22 C-1.97094808 17.07262981 -2.1799928 13.21979128 -2 8 C-1.34 8 -0.68 8 0 8 C0 5.36 0 2.72 0 0 Z " fill="#3D3B39" transform="translate(109,47)"/>
<path d="M0 0 C7.59904289 0.98052166 14.03400917 4.2330429 19 10 C18.67 10.66 18.34 11.32 18 12 C17.21625 11.278125 16.4325 10.55625 15.625 9.8125 C11.53471559 6.37115494 6.8198556 4.23847049 2 2 C2 2.99 2 3.98 2 5 C1.34 5 0.68 5 0 5 C-0.33 5.99 -0.66 6.98 -1 8 C-0.67 5.36 -0.34 2.72 0 0 Z " fill="#767471" transform="translate(40,64)"/>
<path d="M0 0 C-1.33470263 4.00410788 -3.55999303 4.70666202 -7 7 C-7.33 7.99 -7.66 8.98 -8 10 C-8.99 10.33 -9.98 10.66 -11 11 C-10.40298507 3.71641791 -10.40298507 3.71641791 -8.875 1 C-5.95813337 -0.5556622 -3.23371783 -0.18304063 0 0 Z M-5 1 C-5.99 1.99 -6.98 2.98 -8 4 C-7.01 4 -6.02 4 -5 4 C-5 3.01 -5 2.02 -5 1 Z " fill="#5F5D5A" transform="translate(98,55)"/>
<path d="M0 0 C0.33 0.99 0.66 1.98 1 3 C-0.9375 6.1875 -0.9375 6.1875 -3 9 C-2.67 9.66 -2.34 10.32 -2 11 C-2.66 11 -3.32 11 -4 11 C-4.33 11.99 -4.66 12.98 -5 14 C-6.65 13.01 -8.3 12.02 -10 11 C-9.34 10.67 -8.68 10.34 -8 10 C-7.67 9.01 -7.34 8.02 -7 7 C-6.01 7 -5.02 7 -4 7 C-3.566875 5.5459375 -3.566875 5.5459375 -3.125 4.0625 C-2 1 -2 1 0 0 Z " fill="#514F4E" transform="translate(118,77)"/>
<path d="M0 0 C0.66 0 1.32 0 2 0 C3.59138085 4.17737474 4.21278058 7.53160785 4 12 C1.36 12 -1.28 12 -4 12 C-3.45660208 7.43545749 -2.20536179 4.0271824 0 0 Z M0 3 C-1.42944945 5.35438733 -2.08661261 6.48032433 -1.625 9.25 C-1.41875 9.8275 -1.2125 10.405 -1 11 C-0.01 10.67 0.98 10.34 2 10 C1.67 7.69 1.34 5.38 1 3 C0.67 3 0.34 3 0 3 Z " fill="#696865" transform="translate(98,36)"/>
<path d="M0 0 C0.99 0 1.98 0 3 0 C7 6.5 7 6.5 7 11 C4.36 11.33 1.72 11.66 -1 12 C-0.67 8.04 -0.34 4.08 0 0 Z M1 3 C0.67 5.31 0.34 7.62 0 10 C1.65 9.67 3.3 9.34 5 9 C4.49396008 6.83125748 4.00016187 5.00032373 3 3 C2.34 3 1.68 3 1 3 Z " fill="#777673" transform="translate(68,40)"/>
<path d="M0 0 C0.99 0 1.98 0 3 0 C3.33 1.65 3.66 3.3 4 5 C4.66 5 5.32 5 6 5 C6 6.98 6 8.96 6 11 C4.68 11.33 3.36 11.66 2 12 C0.86235649 7.73383684 0 4.43513689 0 0 Z " fill="#2A2827" transform="translate(34,38)"/>
<path d="M0 0 C0.99 0 1.98 0 3 0 C2.67 2.31 2.34 4.62 2 7 C1.34 7 0.68 7 0 7 C2.36620011 9.61527381 4.942048 11.26440562 8 13 C7.67 13.99 7.34 14.98 7 16 C7 15.34 7 14.68 7 14 C5.88625 13.8453125 5.88625 13.8453125 4.75 13.6875 C1.82985982 12.95746496 0.26812446 11.93210602 -2 10 C-1.67 8.68 -1.34 7.36 -1 6 C-0.34 6 0.32 6 1 6 C0.67 4.02 0.34 2.04 0 0 Z " fill="#7B7976" transform="translate(118,63)"/>
<path d="M0 0 C0.33 0.99 0.66 1.98 1 3 C1.66 3 2.32 3 3 3 C3 7.29 3 11.58 3 16 C2.34 16 1.68 16 1 16 C0.14701624 12.32612505 -0.10789471 8.9552607 -0.0625 5.1875 C-0.05347656 4.21167969 -0.04445312 3.23585937 -0.03515625 2.23046875 C-0.02355469 1.49441406 -0.01195312 0.75835937 0 0 Z " fill="#4A4846" transform="translate(33,43)"/>
<path d="M0 0 C0.66 0.33 1.32 0.66 2 1 C2 4.63 2 8.26 2 12 C1.01 12.495 1.01 12.495 0 13 C0 10.36 0 7.72 0 5 C-0.66 4.67 -1.32 4.34 -2 4 C-2.33 6.31 -2.66 8.62 -3 11 C-3.66 10.67 -4.32 10.34 -5 10 C-4.54857119 8.70590408 -4.08858979 7.41478941 -3.625 6.125 C-3.36976562 5.40570312 -3.11453125 4.68640625 -2.8515625 3.9453125 C-2 2 -2 2 0 0 Z " fill="#62605E" transform="translate(95,22)"/>
<path d="M0 0 C1.65 0.33 3.3 0.66 5 1 C3.66195697 5.01412909 1.47584633 5.73005954 -2 8 C-2.99 9.485 -2.99 9.485 -4 11 C-4.66 10.67 -5.32 10.34 -6 10 C-4.02 6.7 -2.04 3.4 0 0 Z " fill="#3E3C3A" transform="translate(120,76)"/>
<path d="M0 0 C0.33 0.99 0.66 1.98 1 3 C1.556875 3.928125 1.556875 3.928125 2.125 4.875 C3.24799846 7.60228197 2.77548466 9.20825522 2 12 C1.01 12 0.02 12 -1 12 C-1.62457273 8.56484998 -2 5.50935186 -2 2 C-1.34 2 -0.68 2 0 2 C0 1.34 0 0.68 0 0 Z " fill="#3B3938" transform="translate(71,24)"/>
<path d="M0 0 C0.66 0 1.32 0 2 0 C2 2.31 2 4.62 2 7 C1.01 7.33 0.02 7.66 -1 8 C-1 8.99 -1 9.98 -1 11 C-1.99 11.33 -2.98 11.66 -4 12 C-3.66666667 10.66666667 -3.33333333 9.33333333 -3 8 C-2.855625 7.34 -2.71125 6.68 -2.5625 6 C-1.95231644 3.83045845 -1.06216572 1.98270935 0 0 Z " fill="#4D4A4A" transform="translate(89,138)"/>
<path d="M0 0 C3.71773631 4.35907088 4.03430753 8.39929561 4 14 C3.55667686 16.50477577 2.88643641 18.60140737 2 21 C1.67 21 1.34 21 1 21 C1.01160156 20.07058594 1.02320312 19.14117187 1.03515625 18.18359375 C1.11753537 9.04290683 1.11753537 9.04290683 0 0 Z " fill="#73716E" transform="translate(77,119)"/>
<path d="M0 0 C0.33 0 0.66 0 1 0 C2.22899346 6.06815522 3.27560214 11.79895188 3 18 C2.67 18 2.34 18 2 18 C1.87625 17.195625 1.7525 16.39125 1.625 15.5625 C1.315625 14.2940625 1.315625 14.2940625 1 13 C0.34 12.67 -0.32 12.34 -1 12 C-1.08159574 7.83861737 -0.98248524 4.0527516 0 0 Z " fill="#3A3835" transform="translate(105,28)"/>
<path d="M0 0 C1.2452444 2.24143992 2.00291885 4.01709614 2.4375 6.5625 C2.7614751 9.05424356 2.7614751 9.05424356 4.5234375 10.328125 C6.56636779 12.64128416 6.30565075 14.15496416 6.1875 17.1875 C6.16042969 18.08855469 6.13335938 18.98960938 6.10546875 19.91796875 C6.07066406 20.60503906 6.03585938 21.29210937 6 22 C5.67 22 5.34 22 5 22 C4.89042969 21.38511719 4.78085937 20.77023438 4.66796875 20.13671875 C4.43013672 18.92435547 4.43013672 18.92435547 4.1875 17.6875 C4.03667969 16.88699219 3.88585937 16.08648437 3.73046875 15.26171875 C2.91302386 12.73069954 1.90107236 11.79517708 0 10 C-0.93335834 6.3443465 -1.24211322 3.58832708 0 0 Z " fill="#7C7A78" transform="translate(23,19)"/>
<path d="M0 0 C2.4375 0.6875 2.4375 0.6875 5 2 C5.8125 4.625 5.8125 4.625 6 7 C5.01 7.495 5.01 7.495 4 8 C1.875 7.0625 1.875 7.0625 0 6 C0 4.02 0 2.04 0 0 Z " fill="#6F6D6B" transform="translate(37,49)"/>
<path d="M0 0 C3.67446567 0.70662801 6.73912209 2.18840116 10 4 C10.33 4.66 10.66 5.32 11 6 C12.32 6 13.64 6 15 6 C15.33 6.99 15.66 7.98 16 9 C11.27728869 8.50141464 8.44420062 7.29845331 4.625 4.5 C3.75101563 3.8709375 2.87703125 3.241875 1.9765625 2.59375 C1.32429688 2.0678125 0.67203125 1.541875 0 1 C0 0.67 0 0.34 0 0 Z " fill="#747370" transform="translate(24,94)"/>
<path d="M0 0 C0.66 0 1.32 0 2 0 C2.25 3.3125 2.25 3.3125 2 7 C0.125 8.9375 0.125 8.9375 -2 10 C-2.66 10 -3.32 10 -4 10 C-4 9.34 -4 8.68 -4 8 C-3.34 8 -2.68 8 -2 8 C-1.855625 6.865625 -1.71125 5.73125 -1.5625 4.5625 C-1 1 -1 1 0 0 Z " fill="#555252" transform="translate(32,83)"/>
<path d="M0 0 C0.99 0 1.98 0 3 0 C3.33 0.66 3.66 1.32 4 2 C4.99 2 5.98 2 7 2 C6.34 4.31 5.68 6.62 5 9 C2.5 6.75 2.5 6.75 0 4 C0 2.68 0 1.36 0 0 Z " fill="#363431" transform="translate(82,56)"/>
<path d="M0 0 C1.32 0 2.64 0 4 0 C4.33 2.31 4.66 4.62 5 7 C3.68 7 2.36 7 1 7 C0.67 4.69 0.34 2.38 0 0 Z " fill="#62605D" transform="translate(98,16)"/>
<path d="M0 0 C3.43536181 1.42152903 4.80445333 3.07260444 7 6 C9.08334635 7.2516467 9.08334635 7.2516467 11 8 C7.75 8.3125 7.75 8.3125 4 8 C1.5625 5.6875 1.5625 5.6875 0 3 C0 2.01 0 1.02 0 0 Z " fill="#3C3A38" transform="translate(45,48)"/>
<path d="M0 0 C1.65 0 3.3 0 5 0 C5 2.64 5 5.28 5 8 C4.01 8.33 3.02 8.66 2 9 C1.34 6.03 0.68 3.06 0 0 Z " fill="#514F4C" transform="translate(24,18)"/>
<path d="M0 0 C0.33 0 0.66 0 1 0 C1 3.63 1 7.26 1 11 C-0.65 11.33 -2.3 11.66 -4 12 C-4.66 11.01 -5.32 10.02 -6 9 C-4.35 8.67 -2.7 8.34 -1 8 C-0.67 5.36 -0.34 2.72 0 0 Z " fill="#413F3D" transform="translate(62,45)"/>
<path d="M0 0 C2.125 0.9375 2.125 0.9375 4 2 C4 2.66 4 3.32 4 4 C2.68 4 1.36 4 0 4 C0.33 4.99 0.66 5.98 1 7 C-0.98 6.34 -2.96 5.68 -5 5 C-4.01 4.34 -3.02 3.68 -2 3 C-2 2.34 -2 1.68 -2 1 C-1.34 0.67 -0.68 0.34 0 0 Z " fill="#4D4B48" transform="translate(48,60)"/>
<path d="M0 0 C3.875 1.875 3.875 1.875 5 3 C5.04063832 4.66617115 5.042721 6.33388095 5 8 C4.01 8 3.02 8 2 8 C1.67 7.01 1.34 6.02 1 5 C0.34 4.67 -0.32 4.34 -1 4 C-0.67 2.68 -0.34 1.36 0 0 Z M2 3 C2 3.66 2 4.32 2 5 C2.66 4.67 3.32 4.34 4 4 C3.34 3.67 2.68 3.34 2 3 Z " fill="#72706D" transform="translate(65,73)"/>
<path d="M0 0 C1.79275866 3.11910856 2.34290718 5.67682428 2.625 9.25 C2.69976562 10.14203125 2.77453125 11.0340625 2.8515625 11.953125 C2.90054688 12.62859375 2.94953125 13.3040625 3 14 C1.02 14.33 -0.96 14.66 -3 15 C-3 14.34 -3 13.68 -3 13 C-1.68 12.67 -0.36 12.34 1 12 C0.835 11.505 0.67 11.01 0.5 10.5 C-0.20688818 6.96555911 -0.06005155 3.60309299 0 0 Z " fill="#7B7977" transform="translate(31,67)"/>
<path d="M0 0 C1.32 0 2.64 0 4 0 C3.67 0.99 3.34 1.98 3 3 C3.27571139 5.00875442 3.60235737 7.01178687 4 9 C2.68 8.67 1.36 8.34 0 8 C0 5.36 0 2.72 0 0 Z " fill="#6D6B68" transform="translate(28,17)"/>
<path d="M0 0 C0.99 0.495 0.99 0.495 2 1 C2 1.66 2 2.32 2 3 C2.66 3 3.32 3 4 3 C4 2.01 4 1.02 4 0 C5.32 0.33 6.64 0.66 8 1 C7.01 1 6.02 1 5 1 C4.67 2.98 4.34 4.96 4 7 C3.01 7.33 2.02 7.66 1 8 C0.67 5.36 0.34 2.72 0 0 Z " fill="#444240" transform="translate(35,63)"/>
<path d="M0 0 C0.66 0 1.32 0 2 0 C2.33 1.65 2.66 3.3 3 5 C2.01 5 1.02 5 0 5 C0 5.99 0 6.98 0 8 C-0.66 8 -1.32 8 -2 8 C-3 5 -3 5 -1.6875 2.3125 C-1.130625 1.549375 -0.57375 0.78625 0 0 Z " fill="#23211F" transform="translate(89,49)"/>
<path d="M0 0 C2.31 0 4.62 0 7 0 C6.67 0.99 6.34 1.98 6 3 C3.4375 4.1875 3.4375 4.1875 1 5 C1.33 4.01 1.66 3.02 2 2 C1.34 2 0.68 2 0 2 C-0.33 2.66 -0.66 3.32 -1 4 C-0.67 2.68 -0.34 1.36 0 0 Z " fill="#777572" transform="translate(91,55)"/>
<path d="M0 0 C0.66 0 1.32 0 2 0 C2 0.66 2 1.32 2 2 C3.32 2 4.64 2 6 2 C6 3.98 6 5.96 6 8 C5.34 7.67 4.68 7.34 4 7 C4 6.01 4 5.02 4 4 C3.01 4.33 2.02 4.66 1 5 C0.67 3.35 0.34 1.7 0 0 Z " fill="#2E2D2B" transform="translate(101,38)"/>
<path d="M0 0 C-1.98 0.99 -1.98 0.99 -4 2 C-3.67 2.99 -3.34 3.98 -3 5 C-5.97 4.505 -5.97 4.505 -9 4 C-9 3.34 -9 2.68 -9 2 C-5.86501708 0.14223235 -3.62528568 -0.20140476 0 0 Z " fill="#53514F" transform="translate(51,90)"/>
<path d="M0 0 C0.66 0 1.32 0 2 0 C2.33 3.63 2.66 7.26 3 11 C1.68 10.67 0.36 10.34 -1 10 C-0.01 10 0.98 10 2 10 C1.690625 9.2575 1.38125 8.515 1.0625 7.75 C0.1872107 5.48454533 -0.57372402 3.38714551 -1 1 C-0.67 0.67 -0.34 0.34 0 0 Z " fill="#807E7B" transform="translate(98,36)"/>
<path d="M0 0 C0.33 0.99 0.66 1.98 1 3 C0.67 3.66 0.34 4.32 0 5 C-0.66 5 -1.32 5 -2 5 C-2.33 5.99 -2.66 6.98 -3 8 C-3.33 7.34 -3.66 6.68 -4 6 C-4.99 5.67 -5.98 5.34 -7 5 C-6.21625 4.54625 -5.4325 4.0925 -4.625 3.625 C-1.96301969 2.11571258 -1.96301969 2.11571258 0 0 Z " fill="#585654" transform="translate(119,64)"/>
<path d="M0 0 C5.5 -0.36666667 5.5 -0.36666667 7.875 1.375 C9 3 9 3 9 5 C8.01 5 7.02 5 6 5 C5.34 4.01 4.68 3.02 4 2 C1.41619823 1.74969023 1.41619823 1.74969023 -1 2 C-0.67 1.34 -0.34 0.68 0 0 Z " fill="#4C4A48" transform="translate(65,16)"/>
<path d="M0 0 C2.24606427 1.77444972 2.95081002 2.58352485 3.29296875 5.48046875 C3.25816406 6.37378906 3.22335938 7.26710938 3.1875 8.1875 C3.16042969 9.08855469 3.13335937 9.98960938 3.10546875 10.91796875 C3.07066406 11.60503906 3.03585938 12.29210937 3 13 C2.67 13 2.34 13 2 13 C1.66127487 11.58461283 1.32925376 10.16762037 1 8.75 C0.814375 7.96109375 0.62875 7.1721875 0.4375 6.359375 C0 4 0 4 0 0 Z " fill="#474643" transform="translate(76,109)"/>
<path d="M0 0 C0.66 0.99 1.32 1.98 2 3 C0.68 4.32 -0.64 5.64 -2 7 C-2 6.01 -2 5.02 -2 4 C-2.66 3.67 -3.32 3.34 -4 3 C-2.68 2.01 -1.36 1.02 0 0 Z " fill="#393735" transform="translate(94,59)"/>
<path d="M0 0 C0 0.99 0 1.98 0 3 C-2.875 3.125 -2.875 3.125 -6 3 C-6.66 2.34 -7.32 1.68 -8 1 C-5.07175348 0.02391783 -3.04386724 -0.08226668 0 0 Z " fill="#343231" transform="translate(34,27)"/>
<path d="M0 0 C0.33 0.66 0.66 1.32 1 2 C2.32 1.67 3.64 1.34 5 1 C4.67 1.99 4.34 2.98 4 4 C2.02 4 0.04 4 -2 4 C-2 3.01 -2 2.02 -2 1 C-1.34 0.67 -0.68 0.34 0 0 Z " fill="#4C4A49" transform="translate(30,92)"/>
<path d="M0 0 C1.65 0 3.3 0 5 0 C5.33 1.32 5.66 2.64 6 4 C4.68 4.33 3.36 4.66 2 5 C1.34 3.35 0.68 1.7 0 0 Z " fill="#403E3B" transform="translate(61,77)"/>
<path d="M0 0 C2.1875 0.3125 2.1875 0.3125 4 1 C4 1.66 4 2.32 4 3 C2.35 3 0.7 3 -1 3 C-1.33 3.66 -1.66 4.32 -2 5 C-2.33 4.34 -2.66 3.68 -3 3 C-1.75 1.4375 -1.75 1.4375 0 0 Z " fill="#353332" transform="translate(66,17)"/>
</svg>
